<mxfile host="app.diagrams.net" modified="2021-04-09T12:43:46.415Z" agent="5.0 (Windows)" etag="-oKnhFJDK_fYcYZADOlB" version="14.5.4" type="github">
  <diagram id="CwN7_leokWLL11fwspEB" name="Page-1">
    <mxGraphModel dx="1490" dy="609" grid="1" gridSize="10" guides="1" tooltips="1" connect="1" arrows="1" fold="1" page="1" pageScale="1" pageWidth="2339" pageHeight="3300" math="0" shadow="0">
      <root>
        <mxCell id="0" />
        <mxCell id="1" parent="0" />
        <mxCell id="1SlARpj1RELaJa2obe_a-49" value="" style="rounded=0;whiteSpace=wrap;html=1;fillColor=#000000;strokeColor=none;" vertex="1" parent="1">
          <mxGeometry x="817" y="2450" width="660" height="120" as="geometry" />
        </mxCell>
        <mxCell id="1SlARpj1RELaJa2obe_a-45" value="" style="rounded=0;whiteSpace=wrap;html=1;fillColor=#000000;strokeColor=none;" vertex="1" parent="1">
          <mxGeometry x="817" y="2310" width="660" height="60" as="geometry" />
        </mxCell>
        <mxCell id="1SlARpj1RELaJa2obe_a-8" value="" style="rounded=0;whiteSpace=wrap;html=1;fillColor=#dae8fc;strokeColor=#6c8ebf;" vertex="1" parent="1">
          <mxGeometry x="690" y="280" width="910" height="190" as="geometry" />
        </mxCell>
        <mxCell id="1SlARpj1RELaJa2obe_a-1" value="&lt;font style=&quot;font-size: 27px&quot;&gt;Visual Studio Generator&lt;/font&gt;" style="text;html=1;strokeColor=none;fillColor=none;align=center;verticalAlign=middle;whiteSpace=wrap;rounded=0;" vertex="1" parent="1">
          <mxGeometry x="870" y="310" width="350" height="20" as="geometry" />
        </mxCell>
        <mxCell id="1SlARpj1RELaJa2obe_a-2" value="&lt;font style=&quot;font-size: 27px&quot;&gt;Ninja Generator&lt;/font&gt;" style="text;html=1;strokeColor=none;fillColor=none;align=center;verticalAlign=middle;whiteSpace=wrap;rounded=0;" vertex="1" parent="1">
          <mxGeometry x="870" y="360" width="350" height="20" as="geometry" />
        </mxCell>
        <mxCell id="1SlARpj1RELaJa2obe_a-3" value="&lt;font style=&quot;font-size: 27px&quot;&gt;MinGW Makefiles Generator&lt;/font&gt;" style="text;html=1;strokeColor=none;fillColor=none;align=center;verticalAlign=middle;whiteSpace=wrap;rounded=0;" vertex="1" parent="1">
          <mxGeometry x="890" y="410" width="350" height="20" as="geometry" />
        </mxCell>
        <mxCell id="1SlARpj1RELaJa2obe_a-4" value="&lt;font style=&quot;font-size: 30px&quot;&gt;MSVC&lt;/font&gt;" style="text;html=1;strokeColor=none;fillColor=none;align=center;verticalAlign=middle;whiteSpace=wrap;rounded=0;" vertex="1" parent="1">
          <mxGeometry x="1390" y="310" width="40" height="20" as="geometry" />
        </mxCell>
        <mxCell id="1SlARpj1RELaJa2obe_a-5" value="&lt;font style=&quot;font-size: 30px&quot;&gt;MSVC&lt;/font&gt;" style="text;html=1;strokeColor=none;fillColor=none;align=center;verticalAlign=middle;whiteSpace=wrap;rounded=0;" vertex="1" parent="1">
          <mxGeometry x="1387" y="360" width="40" height="20" as="geometry" />
        </mxCell>
        <mxCell id="1SlARpj1RELaJa2obe_a-6" value="&lt;font style=&quot;font-size: 30px&quot;&gt;g++&lt;/font&gt;" style="text;html=1;strokeColor=none;fillColor=none;align=center;verticalAlign=middle;whiteSpace=wrap;rounded=0;" vertex="1" parent="1">
          <mxGeometry x="1387" y="410" width="40" height="20" as="geometry" />
        </mxCell>
        <mxCell id="1SlARpj1RELaJa2obe_a-9" value="" style="aspect=fixed;html=1;points=[];align=center;image;fontSize=12;image=img/lib/mscae/VirtualMachineWindows.svg;" vertex="1" parent="1">
          <mxGeometry x="720" y="321" width="117.39" height="108" as="geometry" />
        </mxCell>
        <mxCell id="1SlARpj1RELaJa2obe_a-10" value="" style="rounded=0;whiteSpace=wrap;html=1;fillColor=#dae8fc;strokeColor=#6c8ebf;" vertex="1" parent="1">
          <mxGeometry x="690" y="770" width="910" height="190" as="geometry" />
        </mxCell>
        <mxCell id="1SlARpj1RELaJa2obe_a-11" value="&lt;font style=&quot;font-size: 27px&quot;&gt;Visual Studio Generator&lt;/font&gt;" style="text;html=1;strokeColor=none;fillColor=none;align=center;verticalAlign=middle;whiteSpace=wrap;rounded=0;" vertex="1" parent="1">
          <mxGeometry x="870" y="800" width="350" height="20" as="geometry" />
        </mxCell>
        <mxCell id="1SlARpj1RELaJa2obe_a-12" value="&lt;font style=&quot;font-size: 27px&quot;&gt;Ninja Generator&lt;/font&gt;" style="text;html=1;strokeColor=none;fillColor=none;align=center;verticalAlign=middle;whiteSpace=wrap;rounded=0;" vertex="1" parent="1">
          <mxGeometry x="870" y="850" width="350" height="20" as="geometry" />
        </mxCell>
        <mxCell id="1SlARpj1RELaJa2obe_a-13" value="&lt;font style=&quot;font-size: 27px&quot;&gt;MinGW Makefiles Generator&lt;/font&gt;" style="text;html=1;strokeColor=none;fillColor=none;align=center;verticalAlign=middle;whiteSpace=wrap;rounded=0;" vertex="1" parent="1">
          <mxGeometry x="890" y="900" width="350" height="20" as="geometry" />
        </mxCell>
        <mxCell id="1SlARpj1RELaJa2obe_a-14" value="&lt;font style=&quot;font-size: 30px&quot;&gt;MSVC&lt;/font&gt;" style="text;html=1;strokeColor=none;fillColor=none;align=center;verticalAlign=middle;whiteSpace=wrap;rounded=0;" vertex="1" parent="1">
          <mxGeometry x="1390" y="800" width="40" height="20" as="geometry" />
        </mxCell>
        <mxCell id="1SlARpj1RELaJa2obe_a-15" value="&lt;font style=&quot;font-size: 30px&quot;&gt;g++&lt;/font&gt;" style="text;html=1;strokeColor=none;fillColor=none;align=center;verticalAlign=middle;whiteSpace=wrap;rounded=0;" vertex="1" parent="1">
          <mxGeometry x="1387" y="850" width="40" height="20" as="geometry" />
        </mxCell>
        <mxCell id="1SlARpj1RELaJa2obe_a-16" value="&lt;font style=&quot;font-size: 30px&quot;&gt;g++&lt;/font&gt;" style="text;html=1;strokeColor=none;fillColor=none;align=center;verticalAlign=middle;whiteSpace=wrap;rounded=0;" vertex="1" parent="1">
          <mxGeometry x="1387" y="900" width="40" height="20" as="geometry" />
        </mxCell>
        <mxCell id="1SlARpj1RELaJa2obe_a-18" value="" style="aspect=fixed;html=1;points=[];align=center;image;fontSize=12;image=img/lib/mscae/VM_Linux.svg;" vertex="1" parent="1">
          <mxGeometry x="720" y="810" width="119.57" height="110" as="geometry" />
        </mxCell>
        <mxCell id="1SlARpj1RELaJa2obe_a-19" value="" style="rounded=0;whiteSpace=wrap;html=1;strokeColor=none;fillColor=#FF0000;" vertex="1" parent="1">
          <mxGeometry x="907" y="810" width="583" height="5" as="geometry" />
        </mxCell>
        <mxCell id="1SlARpj1RELaJa2obe_a-20" value="" style="rounded=0;whiteSpace=wrap;html=1;fillColor=#dae8fc;strokeColor=#6c8ebf;" vertex="1" parent="1">
          <mxGeometry x="610" y="1230" width="1070" height="190" as="geometry" />
        </mxCell>
        <mxCell id="1SlARpj1RELaJa2obe_a-21" value="&lt;font style=&quot;font-size: 27px&quot;&gt;Visual Studio Generator&lt;/font&gt;" style="text;html=1;strokeColor=none;fillColor=none;align=center;verticalAlign=middle;whiteSpace=wrap;rounded=0;" vertex="1" parent="1">
          <mxGeometry x="790" y="1260" width="350" height="20" as="geometry" />
        </mxCell>
        <mxCell id="1SlARpj1RELaJa2obe_a-22" value="&lt;font style=&quot;font-size: 27px&quot;&gt;Ninja Generator&lt;/font&gt;" style="text;html=1;strokeColor=none;fillColor=none;align=center;verticalAlign=middle;whiteSpace=wrap;rounded=0;" vertex="1" parent="1">
          <mxGeometry x="790" y="1310" width="350" height="20" as="geometry" />
        </mxCell>
        <mxCell id="1SlARpj1RELaJa2obe_a-23" value="&lt;font style=&quot;font-size: 27px&quot;&gt;MinGW Makefiles Generator&lt;/font&gt;" style="text;html=1;strokeColor=none;fillColor=none;align=center;verticalAlign=middle;whiteSpace=wrap;rounded=0;" vertex="1" parent="1">
          <mxGeometry x="810" y="1360" width="350" height="20" as="geometry" />
        </mxCell>
        <mxCell id="1SlARpj1RELaJa2obe_a-24" value="&lt;font style=&quot;font-size: 30px&quot;&gt;MSVC&lt;/font&gt;" style="text;html=1;strokeColor=none;fillColor=none;align=center;verticalAlign=middle;whiteSpace=wrap;rounded=0;" vertex="1" parent="1">
          <mxGeometry x="1310" y="1260" width="40" height="20" as="geometry" />
        </mxCell>
        <mxCell id="1SlARpj1RELaJa2obe_a-25" value="&lt;font style=&quot;font-size: 30px&quot;&gt;MSVC&lt;/font&gt;" style="text;html=1;strokeColor=none;fillColor=none;align=center;verticalAlign=middle;whiteSpace=wrap;rounded=0;" vertex="1" parent="1">
          <mxGeometry x="1307" y="1310" width="40" height="20" as="geometry" />
        </mxCell>
        <mxCell id="1SlARpj1RELaJa2obe_a-26" value="&lt;font style=&quot;font-size: 30px&quot;&gt;g++&lt;/font&gt;" style="text;html=1;strokeColor=none;fillColor=none;align=center;verticalAlign=middle;whiteSpace=wrap;rounded=0;" vertex="1" parent="1">
          <mxGeometry x="1307" y="1360" width="40" height="20" as="geometry" />
        </mxCell>
        <mxCell id="1SlARpj1RELaJa2obe_a-27" value="" style="aspect=fixed;html=1;points=[];align=center;image;fontSize=12;image=img/lib/mscae/VirtualMachineWindows.svg;" vertex="1" parent="1">
          <mxGeometry x="640" y="1271" width="117.39" height="108" as="geometry" />
        </mxCell>
        <mxCell id="1SlARpj1RELaJa2obe_a-28" value="&lt;font style=&quot;font-size: 30px&quot;&gt;Clang&lt;/font&gt;" style="text;html=1;strokeColor=none;fillColor=none;align=center;verticalAlign=middle;whiteSpace=wrap;rounded=0;" vertex="1" parent="1">
          <mxGeometry x="1450" y="1260" width="40" height="20" as="geometry" />
        </mxCell>
        <mxCell id="1SlARpj1RELaJa2obe_a-29" value="&lt;font style=&quot;font-size: 30px&quot;&gt;Clang&lt;/font&gt;" style="text;html=1;strokeColor=none;fillColor=none;align=center;verticalAlign=middle;whiteSpace=wrap;rounded=0;" vertex="1" parent="1">
          <mxGeometry x="1450" y="1310" width="40" height="20" as="geometry" />
        </mxCell>
        <mxCell id="1SlARpj1RELaJa2obe_a-30" value="&lt;font style=&quot;font-size: 30px&quot;&gt;g++&lt;/font&gt;" style="text;html=1;strokeColor=none;fillColor=none;align=center;verticalAlign=middle;whiteSpace=wrap;rounded=0;" vertex="1" parent="1">
          <mxGeometry x="1550" y="1310" width="40" height="20" as="geometry" />
        </mxCell>
        <mxCell id="1SlARpj1RELaJa2obe_a-31" value="&lt;font style=&quot;font-size: 30px&quot;&gt;Clang&lt;/font&gt;" style="text;html=1;strokeColor=none;fillColor=none;align=center;verticalAlign=middle;whiteSpace=wrap;rounded=0;" vertex="1" parent="1">
          <mxGeometry x="1450" y="1360" width="40" height="20" as="geometry" />
        </mxCell>
        <mxCell id="1SlARpj1RELaJa2obe_a-32" value="" style="rounded=0;whiteSpace=wrap;html=1;fillColor=#dae8fc;strokeColor=#6c8ebf;" vertex="1" parent="1">
          <mxGeometry x="600" y="1820" width="1080" height="190" as="geometry" />
        </mxCell>
        <mxCell id="1SlARpj1RELaJa2obe_a-33" value="&lt;font style=&quot;font-size: 27px&quot;&gt;Visual Studio Generator&lt;/font&gt;" style="text;html=1;strokeColor=none;fillColor=none;align=center;verticalAlign=middle;whiteSpace=wrap;rounded=0;" vertex="1" parent="1">
          <mxGeometry x="780" y="1850" width="350" height="20" as="geometry" />
        </mxCell>
        <mxCell id="1SlARpj1RELaJa2obe_a-34" value="&lt;font style=&quot;font-size: 27px&quot;&gt;Ninja Generator&lt;/font&gt;" style="text;html=1;strokeColor=none;fillColor=none;align=center;verticalAlign=middle;whiteSpace=wrap;rounded=0;" vertex="1" parent="1">
          <mxGeometry x="780" y="1900" width="350" height="20" as="geometry" />
        </mxCell>
        <mxCell id="1SlARpj1RELaJa2obe_a-35" value="&lt;font style=&quot;font-size: 27px&quot;&gt;MinGW Makefiles Generator&lt;/font&gt;" style="text;html=1;strokeColor=none;fillColor=none;align=center;verticalAlign=middle;whiteSpace=wrap;rounded=0;" vertex="1" parent="1">
          <mxGeometry x="800" y="1950" width="350" height="20" as="geometry" />
        </mxCell>
        <mxCell id="1SlARpj1RELaJa2obe_a-36" value="&lt;font style=&quot;font-size: 30px&quot;&gt;MSVC&lt;/font&gt;" style="text;html=1;strokeColor=none;fillColor=none;align=center;verticalAlign=middle;whiteSpace=wrap;rounded=0;" vertex="1" parent="1">
          <mxGeometry x="1300" y="1850" width="40" height="20" as="geometry" />
        </mxCell>
        <mxCell id="1SlARpj1RELaJa2obe_a-37" value="&lt;font style=&quot;font-size: 30px&quot;&gt;g++&lt;/font&gt;" style="text;html=1;strokeColor=none;fillColor=none;align=center;verticalAlign=middle;whiteSpace=wrap;rounded=0;" vertex="1" parent="1">
          <mxGeometry x="1297" y="1900" width="40" height="20" as="geometry" />
        </mxCell>
        <mxCell id="1SlARpj1RELaJa2obe_a-38" value="&lt;font style=&quot;font-size: 30px&quot;&gt;g++&lt;/font&gt;" style="text;html=1;strokeColor=none;fillColor=none;align=center;verticalAlign=middle;whiteSpace=wrap;rounded=0;" vertex="1" parent="1">
          <mxGeometry x="1297" y="1950" width="40" height="20" as="geometry" />
        </mxCell>
        <mxCell id="1SlARpj1RELaJa2obe_a-39" value="" style="aspect=fixed;html=1;points=[];align=center;image;fontSize=12;image=img/lib/mscae/VM_Linux.svg;" vertex="1" parent="1">
          <mxGeometry x="630" y="1860" width="119.57" height="110" as="geometry" />
        </mxCell>
        <mxCell id="1SlARpj1RELaJa2obe_a-40" value="" style="rounded=0;whiteSpace=wrap;html=1;strokeColor=none;fillColor=#FF0000;" vertex="1" parent="1">
          <mxGeometry x="817" y="1860" width="583" height="5" as="geometry" />
        </mxCell>
        <mxCell id="1SlARpj1RELaJa2obe_a-41" value="&lt;font style=&quot;font-size: 30px&quot;&gt;Clang&lt;/font&gt;" style="text;html=1;strokeColor=none;fillColor=none;align=center;verticalAlign=middle;whiteSpace=wrap;rounded=0;" vertex="1" parent="1">
          <mxGeometry x="1420" y="1900" width="40" height="20" as="geometry" />
        </mxCell>
        <mxCell id="1SlARpj1RELaJa2obe_a-42" value="&lt;font style=&quot;font-size: 30px&quot;&gt;Clang&lt;/font&gt;" style="text;html=1;strokeColor=none;fillColor=none;align=center;verticalAlign=middle;whiteSpace=wrap;rounded=0;" vertex="1" parent="1">
          <mxGeometry x="1420" y="1950" width="40" height="20" as="geometry" />
        </mxCell>
        <mxCell id="1SlARpj1RELaJa2obe_a-44" value="&lt;font style=&quot;font-size: 19px&quot; color=&quot;#E6E6E6&quot;&gt;cmake -GNinja -D CMAKE_CXX_COMPILER=g++ ..\source\&lt;/font&gt;" style="text;whiteSpace=wrap;html=1;" vertex="1" parent="1">
          <mxGeometry x="892" y="2325" width="530" height="30" as="geometry" />
        </mxCell>
        <mxCell id="1SlARpj1RELaJa2obe_a-46" value="" style="rounded=0;whiteSpace=wrap;html=1;fillColor=#000000;strokeColor=none;" vertex="1" parent="1">
          <mxGeometry x="817" y="2380" width="660" height="60" as="geometry" />
        </mxCell>
        <mxCell id="1SlARpj1RELaJa2obe_a-47" value="&lt;font style=&quot;font-size: 19px&quot; color=&quot;#E6E6E6&quot;&gt;The compiler has to be supported by the generator&lt;br&gt;&lt;/font&gt;" style="text;whiteSpace=wrap;html=1;" vertex="1" parent="1">
          <mxGeometry x="952" y="2395" width="530" height="30" as="geometry" />
        </mxCell>
        <mxCell id="1SlARpj1RELaJa2obe_a-48" value="&lt;font style=&quot;font-size: 19px&quot; color=&quot;#E6E6E6&quot;&gt;cmake -G&quot;Visual Studio 16 2019&quot; -T&quot;ClangCL&quot; ..\source\&lt;/font&gt;" style="text;whiteSpace=wrap;html=1;" vertex="1" parent="1">
          <mxGeometry x="923.5" y="2465" width="550" height="30" as="geometry" />
        </mxCell>
        <mxCell id="1SlARpj1RELaJa2obe_a-51" value="" style="shadow=0;dashed=0;html=1;strokeColor=none;fillColor=#EF8F21;labelPosition=center;verticalLabelPosition=bottom;verticalAlign=top;align=center;outlineConnect=0;shape=mxgraph.veeam.ms_windows;" vertex="1" parent="1">
          <mxGeometry x="830" y="2457.6" width="44.8" height="44.8" as="geometry" />
        </mxCell>
        <mxCell id="1SlARpj1RELaJa2obe_a-52" value="&lt;font style=&quot;font-size: 19px&quot; color=&quot;#E1D5E7&quot;&gt;Source : https://stackoverflow.com/a/64189112 &lt;/font&gt;" style="text;html=1;strokeColor=none;fillColor=none;align=center;verticalAlign=middle;whiteSpace=wrap;rounded=0;" vertex="1" parent="1">
          <mxGeometry x="870" y="2520" width="510" height="20" as="geometry" />
        </mxCell>
      </root>
    </mxGraphModel>
  </diagram>
</mxfile>
